<?xml version="1.0" standalone="no"?>
<!DOCTYPE svg PUBLIC "-//W3C//DTD SVG 20010904//EN" "http://www.w3.org/TR/2001/REC-SVG-20010904/DTD/svg10.dtd">
<svg version="1.0" xmlns="http://www.w3.org/2000/svg"
  width="4000.000000pt" height="1596.000000pt" viewBox="0 0 4000.000000 1596.000000"
  preserveAspectRatio="xMidYMid meet">

  <g transform="translate(0.000000,1596.000000) scale(0.100000,-0.100000)"
    fill="#ffffff" stroke="none">
    <path
      d="M1028 14427 l392 -392 2 -5145 3 -5145 1580 0 1580 0 3 3958 2 3957
1208 0 c664 0 1246 -4 1293 -9 349 -37 547 -195 630 -501 21 -74 23 -109 24
-275 0 -226 -14 -303 -81 -442 -89 -185 -247 -296 -489 -344 -42 -8 -321 -13
-936 -16 l-877 -4 4 -712 c2 -392 7 -1027 11 -1412 l6 -700 3203 -2700 c1762
-1485 3204 -2704 3204 -2709 0 -5 -106 -286 -236 -624 -129 -338 -233 -616
-231 -618 2 -2 237 169 522 381 l517 385 37 -29 c20 -16 225 -189 456 -384
231 -195 421 -353 423 -352 2 1 -130 229 -293 505 -163 276 -295 504 -293 505
2 1 647 481 1433 1065 787 584 1433 1065 1437 1069 5 4 629 1595 1388 3536
759 1942 1385 3542 1392 3558 12 25 50 -85 540 -1553 l526 -1580 -732 0 -733
0 -157 -412 c-86 -227 -356 -937 -599 -1578 l-443 -1165 1860 -5 1861 -5 132
-395 132 -395 1582 -3 c1503 -2 1581 -1 1577 15 -3 10 -888 2491 -1968 5513
-1079 3022 -1967 5507 -1972 5523 l-10 27 -1961 0 -1962 0 272 -272 271 -273
-2231 -5827 c-1228 -3204 -2235 -5823 -2239 -5820 -7 7 -2737 4640 -2744 4657
-2 6 47 27 111 49 503 170 874 562 1118 1181 158 401 260 890 312 1495 36 426
43 1017 15 1380 -130 1699 -873 2753 -2254 3200 -354 114 -782 189 -1251 220
-105 6 -1297 10 -3460 10 l-3300 0 393 -393z" />
    <path
      d="M21640 12843 l0 -1978 398 398 397 397 793 0 792 0 0 -3958 0 -3957
1580 -1580 1580 -1580 0 5538 0 5537 1190 0 1190 0 0 1580 0 1580 -3960 0
-3960 0 0 -1977z" />
    <path
      d="M33430 14813 c-604 -28 -1192 -143 -1645 -320 -943 -370 -1533 -1048
-1784 -2050 -163 -647 -170 -1540 -20 -2236 107 -493 309 -940 580 -1283 588
-745 1534 -1143 2879 -1214 107 -5 625 -10 1149 -10 1007 0 1113 -4 1277 -45
230 -58 334 -158 334 -322 0 -169 -98 -289 -292 -359 -24 -8 -86 -25 -138 -37
-92 -20 -124 -21 -1015 -24 l-921 -4 -1584 -1585 -1585 -1585 2560 4 c2769 4
2683 2 3110 58 1809 236 2805 1198 2999 2899 76 666 28 1375 -131 1929 -112
391 -298 757 -532 1048 -87 107 -285 305 -397 396 -218 175 -580 377 -876 486
-417 155 -907 251 -1483 292 -92 6 -630 14 -1265 19 -1058 7 -1109 8 -1195 27
-267 60 -401 180 -413 369 -13 200 129 317 448 370 93 16 207 18 1016 21 l910
4 1580 1580 1579 1579 -2540 -2 c-1397 -1 -2569 -3 -2605 -5z" />
  </g>
</svg>